<?xml version="1.0" encoding="UTF-8"?>
<svg id="Layer_1" data-name="Layer 1" xmlns="http://www.w3.org/2000/svg" viewBox="0 0 800 800">
  <defs>
    <style>
      .cls-1 {
        fill: #d79c9f;
        stroke-width: 0px;
      }

      .cls-2 {
        fill: none;
      }

      .cls-2, .cls-3, .cls-4, .cls-5 {
        stroke: #000;
        stroke-miterlimit: 10;
      }

      .cls-3 {
        fill: #e5e1e1;
      }

      .cls-4 {
        fill: #c44579;
      }

      .cls-5 {
        fill: #cec4c4;
      }
    </style>
  </defs>
  <g id="Layer_3" data-name="Layer 3">
    <path class="cls-2" d="M578.5,726.5c56-28.55,90.67-73.33,104-134.35-1.12-25.19-5.62-52.51-13-81.65-2.22-17.48-3.32-35.27-1-54,8.15-27.97,13.12-55.82,14-83.51,3.33-42.43-.21-85.61-10-129.49-7.04-45.99-30.66-93.35-70-142-30.53-29.46-75.36-52.02-140-65-66.48-10.87-119.57-6.24-154,20-40.72,26.26-78.69,64.21-112,122-35.94,67.23-54.71,144.22-58,230-.04,27.14-.03,45.23,0,58.26-19.88,80.49-33.62,157.21-.03,204.85,23.59,34.88,53.06,56.21,88.03,64.89,71.14,39.47,117.48,38.93,145,8,11.86-3.44,19-7.47,22-12,15.63,10.26,27.06,14.05,36,14,31.01,19.45,55.13,23.31,73,13,22.5,4.62,39.94-7.54,57-21,5.69-6.88,11.75-12.13,19-12Z"/>
  </g>
  <g id="Layer_9" data-name="Layer 9">
    <path class="cls-3" d="M371.5,744.5c-38.28,29.35-78.79,31.81-122,2-40.52-26.55-75.14-69.68-104-129-11.21-29.29-19.92-58.24-20-86-1.46-46.12,15.82-68.1,34.46-88.32l211.54,301.32"/>
  </g>
  <g>
    <path class="cls-3" d="M371.5,744.5c-37.35,18.55-74.71,14.55-112.06-12-38.75-18.18-72.01-57.71-99.94-118-12.02-23.44-20.8-52.97-24-93,4.22-32.67,12.86-58.48,24.46-78.32,54.66-93.45,175.14-54.37,209.54,24.32-56.71,105.35-42.69,193.68,23.15,269.55-5.3,3.6-12.22,6.16-21.15,7.45Z"/>
    <path class="cls-3" d="M574.5,393.5c-75.88-14.51-132.36,43.35-174.5,154.69-17.25,92.37-7.76,147.15,17.5,177.31,13.55,16.33,51.41,30.73,72,39-19.12,3.98-55.53-9.28-96.85-27.45-26.83-27.74-45.26-62.22-54.47-104.11-5.5-36.62-7.13-73.68,8.27-112.66l23.05-52.78c19.41-44.8,48.95-70.31,84.89-83.61,32.16-17.08,71.54-18.51,120.11,0v9.61h0Z"/>
  </g>
  <g id="Layer_6" data-name="Layer 6">
    <path class="cls-5" d="M317.5,574.5c49.63,104.26,10.8,134.18-64,23.51-63.67-129.92,3.28-157.7,64-23.51Z"/>
  </g>
  <g id="Layer_11" data-name="Layer 11">
    <path class="cls-3" d="M569.41,729.22c-19.33,5.97-41.63,1.96-66.91-12.05-10.64-3.9-19.09-11.75-24.55-24.99-9.7-19.84-17.16-38.48-14.19-51.6-1.21-58.56,31.49-108.47,80.2-154.29,19.29-26.22,29.57-57.09,30.55-92.78-44.31-4.67-86.17,3.3-120.11,52.15-43.32,49.94-66.1,110.06-63.13,182.94-15.63,97.81,87.09,154.35,111.24,130.9,18.36,3.62,35.03-.76,42.98-10.67"/>
  </g>
  <g id="Layer_7" data-name="Layer 7">
    <path class="cls-1" d="M569.41,729.22c24.32-5.39,45.32-19.96,64.09-40.72,29.52-37.74,53.88-78.81,44-142-1.95-14.64-4.71-29.82-9-46l-.4-39c12.75-44.5,16.33-98.78,11.64-164.55-5.92-81.63-42.87-198.09-133.24-233.45-51.18-23.17-102.53-33.38-154-34-51.64,3.3-101.92,26.45-150,82-43.06,57.62-75.95,116.24-87,177-13.82,57.33-18.97,116.89-17,178.26l2.85-5.26c-2.24-62.88,3.13-122.36,17.15-178,11.34-42.12,28.93-83.29,52.47-123.56,27.78-45.17,64.2-80.09,109.53-104.44,77.34-37.44,133.75-18.97,181,24,49.34,42.95,63.31,95.34,81,167,7.25,70.95,5.15,139.17-12,203-6.89,19.82-20.49,40.57-39,62-69.52,65.69-80.31,171.96-24,207,19.86,11.65,40.59,14.27,61.91,10.72Z"/>
  </g>
  <g id="Layer_4" data-name="Layer 4">
    <path class="cls-3" d="M235.5,387.5c-27.23,2.87-68.62,36.85-74,54-7.09,5.85-13.55,12.94-19,22-4.62-88.67,5.46-161.91,29-221,31.77-86.18,82.84-145.09,138-181,61.21-38.87,119.64-33.39,176,5,65.29,55.6,92.23,122.92,97,197,3.71,82.13,1.28,156.74-21,207-32.28,50.1-71.75,84.1-85,133-7.78,35.92-7.84,66.9,6,89,8.78,12.51,17.17,21.64,25,26-20.28-3.48-34.17-28.03-44-66,.2-57.53,14.17-81.08,28-105,15.03-20.52,32.66-40.92,52.45-61.22,22.68-31.86,29.73-62.55,30.55-92.78v-11c14.62-128.48-7.57-215.71-78-288-53.05-31.24-139.43,12.27-200.19,99.49-23.88,39.78-40.99,79.3-50.87,118.56-.24.97-.48,1.93-.72,2.9-5.85,24.12-8.96,48.14-9.23,72.05h0Z"/>
    <path class="cls-4" d="M598.5,582.5c43.17-53.03,71-31.41,51,11.29s-79,66.71-79,66.71c0,0-13.03-21.39-17.02-88.2-1.94-70.57,57.45-44.73,45.02,10.2Z"/>
  </g>
  <g id="Layer_13" data-name="Layer 13">
    <path class="cls-1" d="M125.41,524.07c-10.98,48.62-12.71,95.85,8.12,139.72,31.87,42.56,63.03,70.41,92.97,72.71l23,10c-66.06-41.69-108.59-114.31-124.09-222.43h0Z"/>
  </g>
</svg>